<svg width="592" height="1225" viewBox="0 0 592 1225" fill="none" xmlns="http://www.w3.org/2000/svg">
<path d="M571.872 274.864C571.872 272.176 571.776 269.872 571.584 267.952C571.392 265.84 571.008 264.016 570.432 262.48C562.752 262.096 557.568 260.272 554.88 257.008C552 253.552 550.56 247.024 550.56 237.424V115.888C550.56 106.288 552 99.856 554.88 96.592C557.568 93.136 562.752 91.216 570.432 90.832C571.008 89.296 571.392 87.472 571.584 85.36C571.776 83.248 571.872 80.944 571.872 78.448C567.648 78.64 562.656 78.832 556.896 79.024C551.136 79.024 545.28 79.12 539.328 79.312C533.376 79.312 528.192 79.312 523.776 79.312C501.312 79.312 483.552 79.216 470.496 79.024C457.44 78.832 448.512 78.64 443.712 78.448C443.136 84.976 442.368 92.656 441.408 101.488C440.256 110.32 439.008 117.808 437.664 123.952C439.2 125.296 441.12 126.256 443.424 126.832C445.536 127.216 447.936 127.408 450.624 127.408C451.008 121.456 452.544 115.696 455.232 110.128C457.92 104.56 462.624 99.952 469.344 96.304C475.872 92.656 485.376 90.832 497.856 90.832H523.488V231.664C523.488 239.92 522.624 246.256 520.896 250.672C519.168 254.896 516.384 257.872 512.544 259.6C508.704 261.136 503.808 262.096 497.856 262.48C497.28 264.016 496.896 265.84 496.704 267.952C496.512 269.872 496.416 272.176 496.416 274.864C500.832 274.48 506.304 274.192 512.832 274C519.36 274 525.984 274 532.704 274C539.424 274 546.72 274 554.592 274C562.272 274.192 568.032 274.48 571.872 274.864Z" fill="white"/>
<path d="M180.872 274.864C180.872 272.176 180.776 269.872 180.584 267.952C180.392 265.84 180.008 264.016 179.432 262.48C171.752 262.096 166.568 260.272 163.88 257.008C161 253.552 159.56 247.024 159.56 237.424V115.888C159.56 106.288 161 99.856 163.88 96.592C166.568 93.136 171.752 91.216 179.432 90.832C180.008 89.296 180.392 87.472 180.584 85.36C180.776 83.248 180.872 80.944 180.872 78.448C170.12 79.024 158.504 79.312 146.024 79.312C139.88 79.312 134.024 79.216 128.456 79.024C122.696 78.832 116.936 78.64 111.176 78.448C111.176 80.944 111.272 83.248 111.464 85.36C111.656 87.472 112.04 89.296 112.616 90.832C120.296 91.216 125.576 93.136 128.456 96.592C131.144 99.856 132.488 106.288 132.488 115.888V165.712C125.192 165.712 119.144 164.464 114.344 161.968C109.352 159.28 104.648 155.056 100.232 149.296C95.816 143.344 90.728 135.568 84.968 125.968C79.016 116.368 74.024 108.496 69.992 102.352C65.96 96.016 62.312 91.024 59.048 87.376C55.592 83.728 52.04 81.232 48.392 79.888C44.552 78.352 39.944 77.584 34.568 77.584C32.264 77.584 29.48 77.776 26.216 78.16C22.952 78.352 20.264 78.736 18.152 79.312C19.112 92.752 18.824 106.768 17.288 121.36C19.4 122.128 21.896 122.8 24.776 123.376C27.464 123.76 29.576 123.952 31.112 123.952C32.456 116.08 34.184 110.608 36.296 107.536C38.408 104.272 41 102.64 44.072 102.64C49.064 102.64 53.384 105.232 57.032 110.416C60.488 115.408 65 122.512 70.568 131.728C77.288 143.056 82.76 151.408 86.984 156.784C91.208 162.16 95.336 166 99.368 168.304C93.032 169.264 87.464 171.184 82.664 174.064C77.864 176.752 73.256 181.072 68.84 187.024C64.232 192.784 59.24 200.656 53.864 210.64C47.912 222.16 43.016 231.28 39.176 238C35.144 244.528 31.688 249.424 28.808 252.688C25.736 255.952 22.664 258.16 19.592 259.312C16.328 260.272 12.488 260.944 8.07199 261.328C8.07199 262.864 8.16799 264.88 8.35999 267.376C8.55199 269.68 8.93599 271.888 9.51199 274C14.696 274 19.112 274 22.76 274C26.408 274.192 29.96 274.48 33.416 274.864C36.68 275.248 40.616 275.824 45.224 276.592C50.792 272.368 55.784 266.32 60.2 258.448C64.424 250.576 68.744 242.128 73.16 233.104C77.384 223.888 82.184 215.248 87.56 207.184C92.744 198.928 98.984 192.208 106.28 187.024C113.384 181.648 122.12 178.96 132.488 178.96V237.424C132.488 247.024 131.144 253.552 128.456 257.008C125.576 260.272 120.296 262.096 112.616 262.48C112.04 264.016 111.656 265.84 111.464 267.952C111.272 269.872 111.176 272.176 111.176 274.864C122.696 274.288 134.312 274 146.024 274C151.592 274 157.544 274 163.88 274C170.216 274.192 175.88 274.48 180.872 274.864Z" fill="white"/>
<path d="M586.816 1098.86C586.432 1093.68 585.472 1089.55 583.936 1086.48C576.448 1086.1 570.976 1084.27 567.52 1081.01C564.064 1077.55 561.568 1071.02 560.032 1061.42L538.432 939.888C536.32 930.288 536.512 923.856 539.008 920.592C541.312 917.136 546.88 915.216 555.712 914.832C556.096 912.912 556.192 910.992 556 909.072C555.808 906.96 555.424 904.752 554.848 902.448C550.432 902.64 545.248 902.832 539.296 903.024C533.152 903.024 527.008 903.12 520.864 903.312C514.72 903.312 509.248 903.312 504.448 903.312C484.288 903.312 467.872 903.216 455.2 903.024C442.528 902.832 433.792 902.64 428.992 902.448C429.76 909.552 430.336 917.52 430.72 926.352C430.912 935.184 430.912 942.768 430.72 949.104C432.64 949.872 434.944 950.448 437.632 950.832C440.128 951.216 442.72 951.408 445.408 951.408C445.6 943.152 446.464 936.528 448 931.536C449.536 926.352 453.088 922.512 458.656 920.016C464.224 917.52 473.248 916.272 485.728 916.272H507.904L531.808 1055.66C533.152 1063.92 533.44 1070.26 532.672 1074.67C531.712 1078.9 529.6 1081.87 526.336 1083.6C522.88 1085.14 518.176 1086.1 512.224 1086.48C511.456 1089.55 511.456 1093.68 512.224 1098.86C516.64 1098.48 522.112 1098.19 528.64 1098C535.168 1098 541.792 1098 548.512 1098C555.04 1098 562.144 1098 569.824 1098C577.504 1098.19 583.168 1098.48 586.816 1098.86Z" fill="white"/>
<path d="M187.648 1098.86C187.648 1094.06 186.88 1089.94 185.344 1086.48C180.16 1085.9 176.128 1084.94 173.248 1083.6C170.368 1082.06 168.16 1079.57 166.624 1076.11C165.088 1072.66 163.744 1067.76 162.592 1061.42L141.568 939.888C139.84 930.288 140.32 923.952 143.008 920.88C145.696 917.808 150.976 915.792 158.848 914.832C159.04 912.912 159.232 910.992 159.424 909.072C159.424 906.96 159.328 904.752 159.136 902.448C148.384 903.024 136.864 903.312 124.576 903.312C112.672 903.312 100.96 903.024 89.44 902.448C89.632 904.752 89.92 906.96 90.304 909.072C90.496 910.992 91.072 912.912 92.032 914.832C96.832 915.6 100.672 916.752 103.552 918.288C106.432 919.824 108.736 922.224 110.464 925.488C112 928.752 113.344 933.552 114.496 939.888L123.136 989.712C118.144 989.52 113.44 988.368 109.024 986.256C104.608 983.952 99.808 980.016 94.624 974.448C89.44 968.688 83.2 960.72 75.904 950.544C67.84 939.216 61.12 930.288 55.744 923.76C50.368 917.04 45.664 912.144 41.632 909.072C37.6 905.808 33.568 903.696 29.536 902.736C25.504 901.584 20.896 901.008 15.712 901.008C14.176 901.008 12.064 901.2 9.376 901.584C6.68799 901.968 4.28798 902.544 2.17599 903.312C3.90399 910.416 5.24799 917.52 6.20799 924.624C7.16799 931.728 7.83999 938.352 8.224 944.496C12.256 946.8 16.96 947.472 22.336 946.512C22.144 937.104 22.912 931.056 24.64 928.368C26.368 925.68 28.576 924.336 31.264 924.336C33.76 924.336 36.448 925.392 39.328 927.504C42.016 929.616 45.472 933.264 49.696 938.448C53.728 943.44 59.104 950.64 65.824 960.048C71.584 968.112 76.384 974.352 80.224 978.768C83.872 982.992 86.944 986.064 89.44 987.984C91.936 989.904 94.24 991.248 96.352 992.016C89.632 992.4 84.544 993.744 81.088 996.048C77.632 998.16 74.944 1001.62 73.024 1006.42C70.912 1011.02 68.608 1017.36 66.112 1025.42C61.504 1040.59 57.088 1052.5 52.864 1061.14C48.448 1069.78 43.552 1075.92 38.176 1079.57C32.8 1083.02 26.368 1084.94 18.88 1085.33C18.496 1089.74 19.36 1093.97 21.472 1098C30.112 1098 37.216 1098.1 42.784 1098.29C48.16 1098.67 54.304 1099.44 61.216 1100.59C66.592 1095.22 71.872 1087.63 77.056 1077.84C82.048 1067.86 86.752 1053.55 91.168 1034.93C93.28 1026.1 95.68 1019.47 98.368 1015.06C101.056 1010.45 104.512 1007.28 108.736 1005.55C112.96 1003.82 118.528 1002.96 125.44 1002.96L135.52 1061.42C137.248 1071.02 136.96 1077.36 134.656 1080.43C132.352 1083.5 126.976 1085.52 118.528 1086.48C117.568 1090.32 117.376 1094.45 117.952 1098.86C129.472 1098.29 141.088 1098 152.8 1098C158.368 1098 164.32 1098 170.656 1098C176.992 1098.19 182.656 1098.48 187.648 1098.86Z" fill="white"/>
</svg>
