<svg width="135" height="197" viewBox="0 0 135 197" fill="none" xmlns="http://www.w3.org/2000/svg">
<path d="M134.872 196.864C134.872 194.176 134.776 191.872 134.584 189.952C134.392 187.84 134.008 186.016 133.432 184.48C125.752 184.096 120.568 182.272 117.88 179.008C115 175.552 113.56 169.024 113.56 159.424V37.888C113.56 28.288 115 21.856 117.88 18.592C120.568 15.136 125.752 13.216 133.432 12.832C134.008 11.296 134.392 9.47199 134.584 7.35999C134.776 5.248 134.872 2.944 134.872 0.447994C130.648 0.639992 125.656 0.831989 119.896 1.02399C114.136 1.02399 108.28 1.11999 102.328 1.31198C96.376 1.31198 91.192 1.31198 86.776 1.31198C64.312 1.31198 46.552 1.21598 33.496 1.02399C20.44 0.831989 11.512 0.639992 6.71199 0.447994C6.13599 6.97599 5.368 14.656 4.408 23.488C3.25599 32.32 2.00799 39.808 0.663996 45.952C2.2 47.296 4.12 48.256 6.42399 48.832C8.53599 49.216 10.936 49.408 13.624 49.408C14.008 43.456 15.544 37.696 18.232 32.128C20.92 26.56 25.624 21.952 32.344 18.304C38.872 14.656 48.376 12.832 60.856 12.832H86.488V153.664C86.488 161.92 85.624 168.256 83.896 172.672C82.168 176.896 79.384 179.872 75.544 181.6C71.704 183.136 66.808 184.096 60.856 184.48C60.28 186.016 59.896 187.84 59.704 189.952C59.512 191.872 59.416 194.176 59.416 196.864C63.832 196.48 69.304 196.192 75.832 196C82.36 196 88.984 196 95.704 196C102.424 196 109.72 196 117.592 196C125.272 196.192 131.032 196.48 134.872 196.864Z" fill="white"/>
</svg>
