<svg width="186" height="200" viewBox="0 0 186 200" fill="none" xmlns="http://www.w3.org/2000/svg">
<path d="M185.648 197.864C185.648 193.064 184.88 188.936 183.344 185.48C178.16 184.904 174.128 183.944 171.248 182.6C168.368 181.064 166.16 178.568 164.624 175.112C163.088 171.656 161.744 166.76 160.592 160.424L139.568 38.888C137.84 29.288 138.32 22.952 141.008 19.88C143.696 16.808 148.976 14.792 156.848 13.832C157.04 11.912 157.232 9.99199 157.424 8.07199C157.424 5.95999 157.328 3.75199 157.136 1.44799C146.384 2.02399 134.864 2.31198 122.576 2.31198C110.672 2.31198 98.96 2.02399 87.44 1.44799C87.632 3.75199 87.92 5.95999 88.304 8.07199C88.496 9.99199 89.072 11.912 90.032 13.832C94.832 14.6 98.672 15.752 101.552 17.288C104.432 18.824 106.736 21.224 108.464 24.488C110 27.752 111.344 32.552 112.496 38.888L121.136 88.712C116.144 88.52 111.44 87.368 107.024 85.256C102.608 82.952 97.808 79.016 92.624 73.448C87.44 67.688 81.2 59.72 73.904 49.544C65.84 38.216 59.12 29.288 53.744 22.76C48.368 16.04 43.664 11.144 39.632 8.07199C35.6 4.80799 31.568 2.69599 27.536 1.73599C23.504 0.583994 18.896 0.00799561 13.712 0.00799561C12.176 0.00799561 10.064 0.199993 7.376 0.583988C4.68799 0.967995 2.28798 1.54399 0.175989 2.31198C1.90399 9.41598 3.24799 16.52 4.20799 23.624C5.16799 30.728 5.83999 37.352 6.224 43.496C10.256 45.8 14.96 46.472 20.336 45.512C20.144 36.104 20.912 30.056 22.64 27.368C24.368 24.68 26.576 23.336 29.264 23.336C31.76 23.336 34.448 24.392 37.328 26.504C40.016 28.616 43.472 32.264 47.696 37.448C51.728 42.44 57.104 49.64 63.824 59.048C69.584 67.112 74.384 73.352 78.224 77.768C81.872 81.992 84.944 85.064 87.44 86.984C89.936 88.904 92.24 90.248 94.352 91.016C87.632 91.4 82.544 92.744 79.088 95.048C75.632 97.16 72.944 100.616 71.024 105.416C68.912 110.024 66.608 116.36 64.112 124.424C59.504 139.592 55.088 151.496 50.864 160.136C46.448 168.776 41.552 174.92 36.176 178.568C30.8 182.024 24.368 183.944 16.88 184.328C16.496 188.744 17.36 192.968 19.472 197C28.112 197 35.216 197.096 40.784 197.288C46.16 197.672 52.304 198.44 59.216 199.592C64.592 194.216 69.872 186.632 75.056 176.84C80.048 166.856 84.752 152.552 89.168 133.928C91.28 125.096 93.68 118.472 96.368 114.056C99.056 109.448 102.512 106.28 106.736 104.552C110.96 102.824 116.528 101.96 123.44 101.96L133.52 160.424C135.248 170.024 134.96 176.36 132.656 179.432C130.352 182.504 124.976 184.52 116.528 185.48C115.568 189.32 115.376 193.448 115.952 197.864C127.472 197.288 139.088 197 150.8 197C156.368 197 162.32 197 168.656 197C174.992 197.192 180.656 197.48 185.648 197.864Z" fill="white"/>
</svg>
