<svg width="159" height="197" viewBox="0 0 159 197" fill="none" xmlns="http://www.w3.org/2000/svg">
<path d="M158.816 196.864C158.432 191.68 157.472 187.552 155.936 184.48C148.448 184.096 142.976 182.272 139.52 179.008C136.064 175.552 133.568 169.024 132.032 159.424L110.432 37.888C108.32 28.288 108.512 21.856 111.008 18.592C113.312 15.136 118.88 13.216 127.712 12.832C128.096 10.912 128.192 8.99199 128 7.07199C127.808 4.95999 127.424 2.75199 126.848 0.447994C122.432 0.639992 117.248 0.831989 111.296 1.02399C105.152 1.02399 99.008 1.11999 92.864 1.31198C86.72 1.31198 81.248 1.31198 76.448 1.31198C56.288 1.31198 39.872 1.21598 27.2 1.02399C14.528 0.831989 5.79199 0.639992 0.991987 0.447994C1.75999 7.55199 2.33599 15.52 2.72 24.352C2.912 33.184 2.912 40.768 2.72 47.104C4.64 47.872 6.944 48.448 9.632 48.832C12.128 49.216 14.72 49.408 17.408 49.408C17.6 41.152 18.464 34.528 20 29.536C21.536 24.352 25.088 20.512 30.656 18.016C36.224 15.52 45.248 14.272 57.728 14.272H79.904L103.808 153.664C105.152 161.92 105.44 168.256 104.672 172.672C103.712 176.896 101.6 179.872 98.336 181.6C94.88 183.136 90.176 184.096 84.224 184.48C83.456 187.552 83.456 191.68 84.224 196.864C88.64 196.48 94.112 196.192 100.64 196C107.168 196 113.792 196 120.512 196C127.04 196 134.144 196 141.824 196C149.504 196.192 155.168 196.48 158.816 196.864Z" fill="white"/>
</svg>
