<svg width="2572" height="391" viewBox="0 0 2572 391" fill="none" xmlns="http://www.w3.org/2000/svg">
<rect width="944" height="1" transform="matrix(1 0 0 -1 1628 3)" fill="white" fill-opacity="0.69"/>
<rect width="944" height="2" transform="matrix(1 0 0 -1 1577 74)" fill="white" fill-opacity="0.8"/>
<rect width="944" height="3" transform="matrix(1 0 0 -1 1538 152)" fill="white" fill-opacity="0.9"/>
<rect width="944" height="3" transform="matrix(1 0 0 -1 1508 230)" fill="white"/>
<rect width="944" height="4" transform="matrix(1 0 0 -1 1476 314)" fill="white"/>
<rect width="944" height="5" transform="matrix(1 0 0 -1 1440 391)" fill="white"/>
<rect width="944" height="1" fill="black" fill-opacity="0.69"/>
<rect x="51" y="71" width="944" height="2" fill="black" fill-opacity="0.8"/>
<rect x="90" y="147" width="944" height="3" fill="black" fill-opacity="0.9"/>
<rect x="120" y="225" width="944" height="3" fill="black"/>
<rect x="152" y="306" width="944" height="5" fill="black"/>
<rect x="188" y="384" width="944" height="5" fill="black"/>
</svg>
